<mxfile host="app.diagrams.net" agent="Mozilla/5.0 (Windows NT 10.0; Win64; x64) AppleWebKit/537.36 (KHTML, like Gecko) Chrome/132.0.0.0 Safari/537.36 Edg/132.0.0.0" version="26.0.7">
  <diagram name="Página-1" id="Kw5XNP3-JBJt6GBtTKQM">
    <mxGraphModel dx="1426" dy="789" grid="1" gridSize="10" guides="1" tooltips="1" connect="1" arrows="1" fold="1" page="1" pageScale="1" pageWidth="827" pageHeight="1169" math="0" shadow="0">
      <root>
        <mxCell id="0" />
        <mxCell id="1" parent="0" />
        <mxCell id="veXicVUEY7CAmnQmhf8E-1" value="X, Y" style="html=1;strokeWidth=2;shape=manualInput;whiteSpace=wrap;rounded=1;size=26;arcSize=11;fillColor=#ffe6cc;strokeColor=#d79b00;" vertex="1" parent="1">
          <mxGeometry x="110" y="180" width="100" height="60" as="geometry" />
        </mxCell>
        <mxCell id="veXicVUEY7CAmnQmhf8E-2" value="Início" style="strokeWidth=2;html=1;shape=mxgraph.flowchart.start_1;whiteSpace=wrap;fillColor=#ffe6cc;strokeColor=#d79b00;" vertex="1" parent="1">
          <mxGeometry x="110" y="110" width="100" height="40" as="geometry" />
        </mxCell>
        <mxCell id="veXicVUEY7CAmnQmhf8E-3" value="Fim" style="strokeWidth=2;html=1;shape=mxgraph.flowchart.terminator;whiteSpace=wrap;fillColor=#ffe6cc;strokeColor=#d79b00;" vertex="1" parent="1">
          <mxGeometry x="117.5" y="460" width="90" height="50" as="geometry" />
        </mxCell>
        <mxCell id="veXicVUEY7CAmnQmhf8E-4" value="Z = X + Y" style="rounded=1;whiteSpace=wrap;html=1;absoluteArcSize=1;arcSize=14;strokeWidth=2;fillColor=#ffe6cc;strokeColor=#d79b00;" vertex="1" parent="1">
          <mxGeometry x="115" y="270" width="95" height="70" as="geometry" />
        </mxCell>
        <mxCell id="veXicVUEY7CAmnQmhf8E-5" value="Z" style="strokeWidth=2;html=1;shape=mxgraph.flowchart.display;whiteSpace=wrap;fillColor=#ffe6cc;strokeColor=#d79b00;" vertex="1" parent="1">
          <mxGeometry x="115" y="370" width="100" height="60" as="geometry" />
        </mxCell>
        <mxCell id="veXicVUEY7CAmnQmhf8E-6" style="edgeStyle=orthogonalEdgeStyle;rounded=0;orthogonalLoop=1;jettySize=auto;html=1;exitX=0.5;exitY=1;exitDx=0;exitDy=0;exitPerimeter=0;entryX=0.5;entryY=0.167;entryDx=0;entryDy=0;entryPerimeter=0;fillColor=#ffe6cc;strokeColor=#d79b00;" edge="1" parent="1" source="veXicVUEY7CAmnQmhf8E-2" target="veXicVUEY7CAmnQmhf8E-1">
          <mxGeometry relative="1" as="geometry" />
        </mxCell>
        <mxCell id="veXicVUEY7CAmnQmhf8E-7" style="edgeStyle=orthogonalEdgeStyle;rounded=0;orthogonalLoop=1;jettySize=auto;html=1;exitX=0.5;exitY=1;exitDx=0;exitDy=0;entryX=0.5;entryY=0;entryDx=0;entryDy=0;fillColor=#ffe6cc;strokeColor=#d79b00;" edge="1" parent="1" source="veXicVUEY7CAmnQmhf8E-1" target="veXicVUEY7CAmnQmhf8E-4">
          <mxGeometry relative="1" as="geometry">
            <mxPoint x="140" y="260" as="targetPoint" />
          </mxGeometry>
        </mxCell>
        <mxCell id="veXicVUEY7CAmnQmhf8E-8" style="edgeStyle=orthogonalEdgeStyle;rounded=0;orthogonalLoop=1;jettySize=auto;html=1;exitX=0.5;exitY=1;exitDx=0;exitDy=0;entryX=0.5;entryY=0;entryDx=0;entryDy=0;entryPerimeter=0;fillColor=#ffe6cc;strokeColor=#d79b00;" edge="1" parent="1" source="veXicVUEY7CAmnQmhf8E-4" target="veXicVUEY7CAmnQmhf8E-5">
          <mxGeometry relative="1" as="geometry" />
        </mxCell>
        <mxCell id="veXicVUEY7CAmnQmhf8E-9" style="edgeStyle=orthogonalEdgeStyle;rounded=0;orthogonalLoop=1;jettySize=auto;html=1;exitX=0.5;exitY=1;exitDx=0;exitDy=0;exitPerimeter=0;entryX=0.5;entryY=0;entryDx=0;entryDy=0;entryPerimeter=0;fillColor=#ffe6cc;strokeColor=#d79b00;" edge="1" parent="1" source="veXicVUEY7CAmnQmhf8E-5" target="veXicVUEY7CAmnQmhf8E-3">
          <mxGeometry relative="1" as="geometry" />
        </mxCell>
        <mxCell id="veXicVUEY7CAmnQmhf8E-11" value="Início" style="strokeWidth=2;html=1;shape=mxgraph.flowchart.start_1;whiteSpace=wrap;fillColor=#ffe6cc;strokeColor=#d79b00;" vertex="1" parent="1">
          <mxGeometry x="306" y="110" width="100" height="40" as="geometry" />
        </mxCell>
        <mxCell id="veXicVUEY7CAmnQmhf8E-13" value="Fim" style="strokeWidth=2;html=1;shape=mxgraph.flowchart.terminator;whiteSpace=wrap;fillColor=#ffe6cc;strokeColor=#d79b00;" vertex="1" parent="1">
          <mxGeometry x="306" y="160" width="90" height="50" as="geometry" />
        </mxCell>
        <mxCell id="veXicVUEY7CAmnQmhf8E-14" value="Exemplo de Fluxograma que soma dois valores" style="text;html=1;align=center;verticalAlign=middle;whiteSpace=wrap;rounded=0;" vertex="1" parent="1">
          <mxGeometry x="90" y="50" width="150" height="40" as="geometry" />
        </mxCell>
        <mxCell id="veXicVUEY7CAmnQmhf8E-15" value="Elementos mais comuns de Fluxograma" style="text;html=1;align=center;verticalAlign=middle;whiteSpace=wrap;rounded=0;" vertex="1" parent="1">
          <mxGeometry x="329" y="50" width="150" height="40" as="geometry" />
        </mxCell>
        <mxCell id="veXicVUEY7CAmnQmhf8E-16" value="Entrada" style="html=1;strokeWidth=2;shape=manualInput;whiteSpace=wrap;rounded=1;size=26;arcSize=11;fillColor=#ffe6cc;strokeColor=#d79b00;" vertex="1" parent="1">
          <mxGeometry x="422" y="100" width="100" height="60" as="geometry" />
        </mxCell>
        <mxCell id="veXicVUEY7CAmnQmhf8E-17" value="Processamento" style="rounded=1;whiteSpace=wrap;html=1;absoluteArcSize=1;arcSize=14;strokeWidth=2;fillColor=#ffe6cc;strokeColor=#d79b00;" vertex="1" parent="1">
          <mxGeometry x="422" y="180" width="95" height="70" as="geometry" />
        </mxCell>
        <mxCell id="veXicVUEY7CAmnQmhf8E-19" value="Saída" style="strokeWidth=2;html=1;shape=mxgraph.flowchart.display;whiteSpace=wrap;fillColor=#ffe6cc;strokeColor=#d79b00;" vertex="1" parent="1">
          <mxGeometry x="419.5" y="260" width="100" height="60" as="geometry" />
        </mxCell>
        <mxCell id="veXicVUEY7CAmnQmhf8E-20" value="Seta de fluxo" style="edgeStyle=orthogonalEdgeStyle;rounded=0;orthogonalLoop=1;jettySize=auto;html=1;fillColor=#ffe6cc;strokeColor=#d79b00;" edge="1" parent="1">
          <mxGeometry relative="1" as="geometry">
            <mxPoint x="352" y="240" as="sourcePoint" />
            <mxPoint x="352" y="290" as="targetPoint" />
          </mxGeometry>
        </mxCell>
        <mxCell id="veXicVUEY7CAmnQmhf8E-22" value="V" style="edgeStyle=orthogonalEdgeStyle;rounded=0;orthogonalLoop=1;jettySize=auto;html=1;exitX=1;exitY=0.5;exitDx=0;exitDy=0;fillColor=#ffe6cc;strokeColor=#d79b00;" edge="1" parent="1" source="veXicVUEY7CAmnQmhf8E-21">
          <mxGeometry relative="1" as="geometry">
            <mxPoint x="442" y="350" as="targetPoint" />
          </mxGeometry>
        </mxCell>
        <mxCell id="veXicVUEY7CAmnQmhf8E-23" value="F" style="edgeStyle=orthogonalEdgeStyle;rounded=0;orthogonalLoop=1;jettySize=auto;html=1;exitX=0.5;exitY=1;exitDx=0;exitDy=0;fillColor=#ffe6cc;strokeColor=#d79b00;" edge="1" parent="1" source="veXicVUEY7CAmnQmhf8E-21">
          <mxGeometry relative="1" as="geometry">
            <mxPoint x="356" y="430" as="targetPoint" />
          </mxGeometry>
        </mxCell>
        <mxCell id="veXicVUEY7CAmnQmhf8E-21" value="Se" style="rhombus;whiteSpace=wrap;html=1;fillColor=#ffe6cc;strokeColor=#d79b00;" vertex="1" parent="1">
          <mxGeometry x="320.5" y="320" width="71" height="60" as="geometry" />
        </mxCell>
      </root>
    </mxGraphModel>
  </diagram>
</mxfile>
